<svg
    xmlns="http://www.w3.org/2000/svg"
    width="70px"
    height="70px"
    viewBox="0 0 70 70"
    stroke-width="2" 
    stroke="black"
>
    <g id="rectangle">
        <rect class="fill-gray" fill="#d3d3d3" x="19.4" y="8.6"  width="31.7" height="22.9"></rect>
        <circle class="fill-white" fill="white" cx="51" cy="8.7" r="3" ></circle>
    </g>

    <g id="hands">
        <path class="fill-pasta" fill="#f3d5c0" d="M19.1,27C18.5,25.8,17.3,25,16,25c-1.1,0-2.2,0.6-2.8,1.5c-0.1,0.2-0.4,0.3-0.6,0.1c-0.5-0.4-1.4-0.6-2-0.4    c-0.6,0.2-1.1,0.5-1.6,1c-0.2,0.2-0.5,0-0.5-0.2c-0.1-3.5-2.9-6.8-2.5-10.1c0.1-0.6,0.6-0.9,1.1-0.6c1,0.4,2.3,0.1,2.9-0.9    c0.7-1.3,0-3.2-1.3-3.8c-1.4-0.6-3-0.1-4,1.1C3.2,14,3,16,2.9,17.8c-0.2,2-0.3,4-0.5,6.1c-0.1,1.4-0.2,2.8-0.2,4.2    c0,1.9,0.3,3.9-0.3,5.6c-0.2,0.4,0.1,0.9,0.5,1c3.5,1,7.3,0.8,10.7-0.6c1.5,0.7,3.2,1.1,4.9,1.2c0.3,0,0.6-0.1,0.8,0.1l0,0"></path>
        <path class="fill-pasta" fill="#f3d5c0" d="M51.1,27c0.6-1.2,1.9-1.9,3.2-1.9c1.1,0,2.2,0.6,2.8,1.5c0.1,0.2,0.4,0.3,0.6,0.1c0.5-0.4,1.4-0.6,2-0.4    c0.6,0.2,1.1,0.5,1.6,1c0.2,0.2,0.5,0,0.5-0.2c0.1-3.5,2.9-6.8,2.5-10.1c-0.1-0.6-0.6-0.9-1.1-0.6c-1,0.4-2.3,0.1-2.9-0.9    c-0.7-1.3,0-3.2,1.3-3.8c1.4-0.6,3-0.1,4,1.1c1.2,1.4,1.4,3.4,1.5,5.2c0.2,2,0.3,4,0.5,6.1c0.1,1.4,0.2,2.8,0.2,4.2    c0,1.9-0.3,3.9,0.3,5.6c0.2,0.4-0.1,0.9-0.5,1c-3.5,1-7.3,0.8-10.7-0.6c-1.5,0.7-3.2,1.1-4.9,1.2c-0.3,0-0.6-0.1-0.8,0.1l0,0"></path>
    </g>

    <g id="legs">
        <line x1="19.4" y1="7.6" x2="19.4" y2="54.6"></line>
        <line x1="51.1" y1="54.6" x2="51.1" y2="11.9"></line>
    </g>

    <g id="feet">
        <g>
            <polygon fill="#d3d3d3" points="19.4,54.6 15.65,61.9 23.15,61.9"/>
            <line x1="15.65" y1="61.9" x2="15.65" y2="67.9" />
            <line x1="19.4" y1="61.9" x2="19.4" y2="67.9" />
            <line x1="23.15" y1="61.9" x2="23.15" y2="67.9" />
        </g>
        <g>
            <polygon fill="#d3d3d3" points="51.1,54.6 47.35,61.9 54.85,61.9" />
            <line x1="47.35" y1="61.9" x2="47.35" y2="67.9" />
            <line x1="51.1" y1="61.9" x2="51.1" y2="67.9" />
            <line x1="54.85" y1="61.9" x2="54.85" y2="67.9" />
        </g>
    </g>
</svg>